<svg width="458" height="594" viewBox="0 0 458 594" fill="none" xmlns="http://www.w3.org/2000/svg">
<g clip-path="url(#clip0_94_1108)">
<path d="M458 133.26L381.021 88.0706H376.856L308.082 128.436V45.1898L231.103 0H226.938L149.959 45.1898V128.436L81.1849 88.0706H77.0205L0 133.26V136.229V459.897L76.9793 505.746H81.1849L149.918 464.844V547.967L226.897 593.817H231.103L308.082 547.967V464.844L376.815 505.746H381.021L458 459.897V133.26ZM79.0821 96.3993L147.939 136.847L79.0821 177.832L10.2254 136.847L79.0821 96.3993ZM8.24631 145.259L74.959 184.965V408.77L8.24631 447.939V145.259ZM74.959 418.335V494.902L10.2254 456.351L74.959 418.335ZM83.2053 494.902V418.335L147.939 456.351L83.2053 494.902ZM149.918 447.939L83.2053 408.77V184.965L149.918 145.259V447.939ZM299.836 136.229V216.466L233.123 177.296V96.9354L299.836 57.2294V136.229ZM229 265.861L160.143 224.877L229 184.429L297.857 224.877L229 265.861ZM233.123 87.3284V10.7614L297.857 48.7769L233.123 87.3284ZM224.877 10.7614V87.3284L160.143 48.7769L224.877 10.7614ZM158.164 57.1881L224.877 96.8941V177.254L158.164 216.424V57.1881ZM158.164 233.288L224.877 272.994V496.799L158.164 535.969V233.288ZM224.877 506.365V582.932L160.143 544.38L224.877 506.365ZM233.123 582.932V506.365L297.857 544.38L233.123 582.932ZM299.836 535.969L233.123 496.799V272.994L299.836 233.288V535.969ZM383.041 98.832L447.775 136.847L383.041 175.399V98.832ZM374.795 98.832V175.399L310.061 136.847L374.795 98.832ZM308.082 145.259L374.795 184.965V408.77L308.082 447.939V145.259ZM378.918 497.376L310.061 456.351L378.918 415.903L447.775 456.351L378.918 497.376ZM449.754 447.939L383.041 408.77V184.965L449.754 145.259V447.939Z" fill="#161614"/>
</g>
<defs>
<clipPath id="clip0_94_1108">
<rect width="458" height="593.734" fill="white"/>
</clipPath>
</defs>
</svg>
